<svg width="204" height="188" viewBox="0 0 204 188" fill="none" xmlns="http://www.w3.org/2000/svg">
<rect x="19.1812" y="11.1812" width="165.638" height="165.638" rx="28.8144" fill="white" stroke="#A8A8A8" stroke-width="0.362445"/>
<path fill-rule="evenodd" clip-rule="evenodd" d="M62 43L68.5299 43.1057C86.9379 43.4037 100.509 44.2008 110.097 45.3907C116.825 46.2256 123.592 48.6039 129.01 52.3491C135.65 56.9383 140 63.3445 141.164 71.292L141.179 71.395L141.189 71.4985C142.084 80.309 139.745 85.8917 134.417 91.7188C134.3 91.8471 133.993 92.1762 133.633 92.5614L133.541 92.6601L133.574 92.6962C138.604 98.2627 141.132 104.999 141.211 113.669C141.211 126.55 129.319 139.318 114.429 141.208C110.897 141.656 106.423 142.001 99.4976 142.394C100.605 142.331 92.6513 142.75 84.2039 143.214L83.3435 143.261C77.7439 143.569 72.0554 143.891 68.7521 144.099L62.6466 144.485L63.8043 138.494L64.9314 132.662C67.8141 118.136 74.3389 109.939 86.5191 103.947C90.3608 102.058 94.4787 101.069 101.461 99.9798C101.809 99.9255 102.172 99.8696 102.601 99.8038C102.871 99.7626 103.167 99.7173 103.728 99.6319C112.541 98.287 116.075 97.2634 117.701 95.4391C118.854 95.829 120.135 96.677 121.542 97.9828C122.949 99.2887 124.028 100.532 124.778 101.712C122.588 104.169 119.55 105.769 115.569 106.922C115.309 106.998 115.051 107.07 114.793 107.14L114.405 107.243C112.072 107.852 109.609 108.287 105.16 108.966C104.598 109.051 104.304 109.096 104.038 109.137C103.616 109.201 103.262 109.256 102.924 109.309C96.8573 110.255 93.4241 111.079 90.7077 112.416C81.1187 117.132 76.5185 122.912 74.2243 134.472L74.2563 134.313L74.4251 134.303C83.8957 133.761 97.4853 133.039 98.9394 132.967L99.0312 132.962C99.0525 132.961 99.0644 132.961 99.0664 132.961L99.0626 132.961L99.3936 132.942C105.72 132.579 109.864 132.26 113.02 131.868L113.234 131.841C123.559 130.531 131.745 122.033 131.745 114.09C131.745 106.189 129.538 101.73 124.387 96.9373C124.245 96.8141 123.975 96.5803 123.578 96.2361C120.641 93.5304 114.086 91.0546 107.067 90.373C102.388 89.9186 102.267 89.9074 106.704 90.3394C90.9193 88.8768 84.8672 86.7378 78.6783 80.5212C73.5606 75.3805 69.2331 67.0428 66.999 59.1074L67.0174 59.1708L63.9303 49.2218L62 43ZM74.9141 52.6784L76.0797 56.4357L76.115 56.555C77.9469 63.0618 81.5498 70.0032 85.3978 73.8685C89.7334 78.2236 93.7989 79.6605 107.559 80.9355C114.454 81.5437 121.199 83.5254 126.097 86.4567L126.287 86.5719L126.351 86.5041C126.811 86.0105 127.236 85.5572 127.388 85.392L127.421 85.3568C131.076 81.3591 132.362 78.2892 131.769 72.4497L131.779 72.559L131.749 72.362C130.179 62.7832 120.908 56.3549 109.285 54.8068L108.928 54.7609C100.899 53.7644 89.8012 53.0454 75.0983 52.6833L74.9141 52.6784Z" fill="#111111"/>
</svg>
