<?xml version="1.0" encoding="UTF-8"?>
<svg width="1024px" height="1024px" viewBox="0 0 1024 1024" version="1.1" xmlns="http://www.w3.org/2000/svg" xmlns:xlink="http://www.w3.org/1999/xlink">
    <title>1024</title>
    <defs>
        <path d="M0,0 L1024,0 L1024,1024 L0,1024 L0,0 Z" id="path-1"></path>
        <path d="M184,0 L640,0 C741.620394,0 824,82.379606 824,184 L824,640 C824,741.620394 741.620394,824 640,824 L184,824 C82.379606,824 0,741.620394 0,640 L0,184 C0,82.379606 82.379606,0 184,0 Z" id="path-2"></path>
        <filter x="-4.9%" y="-3.9%" width="109.7%" height="109.7%" filterUnits="objectBoundingBox" id="filter-3">
            <feOffset dx="0" dy="8" in="SourceAlpha" result="shadowOffsetOuter1"></feOffset>
            <feGaussianBlur stdDeviation="12" in="shadowOffsetOuter1" result="shadowBlurOuter1"></feGaussianBlur>
            <feColorMatrix values="0 0 0 0 0   0 0 0 0 0   0 0 0 0 0  0 0 0 0.138794799 0" type="matrix" in="shadowBlurOuter1"></feColorMatrix>
        </filter>
    </defs>
    <g id="1024" stroke="none" fill="none" xlink:href="#path-1" fill-rule="evenodd" stroke-width="1">
        <g id="编组" transform="translate(100, 100)">
            <g id="矩形">
                <use fill="black" fill-opacity="1" filter="url(#filter-3)" xlink:href="#path-2"></use>
                <use fill="#FAFAFA" fill-rule="evenodd" xlink:href="#path-2"></use>
            </g>
            <g transform="translate(208, 224)" id="路径">
                <path d="M239.465791,166.1147 C256.034869,136.627525 298.56201,136.691229 315.04337,166.226183 C321.700347,178.158017 321.55043,192.71288 314.646248,204.502972 L220.802652,364.759358 C216.79794,371.596433 209.459955,375.800924 201.527084,375.800924 L176.116061,375.800924 C151.735322,375.800924 136.367179,349.594525 148.298383,328.361848 L239.465791,166.1147 Z" fill="#4574FF"></path>
                <path d="M335.039818,262.122011 C341.28213,252.172976 355.793829,252.161828 362.053684,262.099715 L403.051346,327.188095 C416.413146,348.398475 401.14548,376 376.05024,376 L338.143431,376 C330.45298,376 323.304784,372.047142 319.223518,365.54133 L301.831488,337.821952 C297.459957,330.854283 297.461551,322.004149 301.833083,315.03648 L335.039818,262.122011 Z" fill="#0D1942"></path>
                <path d="M172.715803,23.06981 C184.624679,1.50316257 211.788461,-6.34091969 233.384561,5.55109952 C254.982257,17.4431187 262.835384,44.5674975 250.926509,66.1339857 L86.2851511,364.292724 C82.357471,371.406913 74.866857,375.82322 66.7325545,375.82322 L31.9429132,375.82322 C7.66647865,375.82322 -7.71171185,349.819083 4.01056397,328.591184 L172.715803,23.06981 Z" fill="#0D1942" fill-rule="nonzero"></path>
            </g>
        </g>
    </g>
</svg>