<svg width="1024" height="1024" viewBox="0 0 1024 1024" fill="none" xmlns="http://www.w3.org/2000/svg">
<rect x="55" y="55" width="914" height="914" rx="159" fill="white" stroke="#A8A8A8" stroke-width="2"/>
<path fill-rule="evenodd" clip-rule="evenodd" d="M294 232L330.032 232.583C431.609 234.228 506.498 238.626 559.405 245.192C596.529 249.799 633.868 262.923 663.769 283.589C700.408 308.913 724.41 344.262 730.831 388.117L730.914 388.686L730.972 389.257C735.908 437.874 723.003 468.68 693.605 500.834C692.957 501.542 691.262 503.358 689.277 505.483L688.767 506.028L688.949 506.227C716.709 536.943 730.659 574.118 731.095 621.954C731.095 693.036 665.471 763.492 583.307 773.92C563.819 776.393 539.13 778.293 500.914 780.465C507.023 780.118 463.136 782.429 416.523 784.988L411.775 785.249C380.876 786.95 349.486 788.723 331.258 789.874L297.568 792L303.956 758.944L310.176 726.763C326.083 646.604 362.087 601.373 429.298 568.312C450.497 557.884 473.22 552.429 511.747 546.419C513.668 546.119 515.669 545.81 518.041 545.447C519.528 545.22 521.163 544.97 524.257 544.499C572.89 537.078 592.388 531.43 601.361 521.363C607.726 523.514 614.791 528.193 622.556 535.399C630.321 542.605 636.273 549.465 640.412 555.978C628.329 569.534 611.568 578.365 589.598 584.729C588.162 585.145 586.739 585.544 585.314 585.93L583.173 586.499C570.298 589.858 556.71 592.257 532.16 596.004C529.057 596.477 527.438 596.723 525.967 596.949C523.641 597.305 521.687 597.606 519.822 597.897C486.345 603.12 467.4 607.667 452.411 615.041C399.498 641.068 374.114 672.958 361.455 736.751L361.631 735.87L362.563 735.818C414.822 732.825 489.81 728.843 497.834 728.442L498.341 728.418C498.459 728.412 498.524 728.409 498.535 728.409L498.514 728.41L500.34 728.309C535.25 726.304 558.114 724.542 575.532 722.381L576.711 722.233C633.687 715.002 678.857 668.111 678.857 624.277C678.857 580.683 666.678 556.076 638.257 529.63C637.471 528.95 635.984 527.66 633.794 525.761C617.588 510.831 581.414 497.169 542.684 493.408C516.864 490.9 516.195 490.838 540.679 493.222C453.579 485.152 420.183 473.348 386.032 439.044C357.792 410.678 333.913 364.67 321.585 320.882L321.687 321.232L304.651 266.332L294 232ZM365.261 285.406L371.693 306.139L371.888 306.797C381.996 342.703 401.877 381.006 423.111 402.335C447.035 426.366 469.469 434.295 545.398 441.331C583.445 444.687 620.664 455.622 647.69 471.797L648.739 472.433L649.093 472.059C651.634 469.335 653.976 466.834 654.818 465.922L654.996 465.728C675.165 443.668 682.261 426.728 678.99 394.505L679.047 395.109L678.879 394.022C670.218 341.165 619.058 305.693 554.92 297.151L552.953 296.897C508.648 291.399 447.409 287.431 366.278 285.433L365.261 285.406Z" fill="#111111"/>
</svg>
