<?xml version="1.0" encoding="UTF-8"?>
<svg width="204px" height="188px" viewBox="0 0 204 188" version="1.1" xmlns="http://www.w3.org/2000/svg" xmlns:xlink="http://www.w3.org/1999/xlink">
    <title>icon-plain备份</title>
    <defs>
        <path d="M0,0 L204,0 L204,188 L0,188 L0,0 Z" id="path-1"></path>
        <path d="M37.7378641,0 L131.262136,0 C152.104183,0 169,16.8958173 169,37.7378641 L169,131.262136 C169,152.104183 152.104183,169 131.262136,169 L37.7378641,169 C16.8958173,169 0,152.104183 0,131.262136 L0,37.7378641 C0,16.8958173 16.8958173,0 37.7378641,0 Z" id="path-2"></path>
        <filter x="-4.1%" y="-3.0%" width="108.3%" height="108.3%" filterUnits="objectBoundingBox" id="filter-3">
            <feOffset dx="0" dy="2" in="SourceAlpha" result="shadowOffsetOuter1"></feOffset>
            <feGaussianBlur stdDeviation="2" in="shadowOffsetOuter1" result="shadowBlurOuter1"></feGaussianBlur>
            <feColorMatrix values="0 0 0 0 0   0 0 0 0 0   0 0 0 0 0  0 0 0 0.138794799 0" type="matrix" in="shadowBlurOuter1"></feColorMatrix>
        </filter>
    </defs>
    <g id="icon-plain备份" stroke="none" fill="none" xlink:href="#path-1" fill-rule="evenodd" stroke-width="1">
        <g id="编组备份" transform="translate(18, 10)">
            <g id="矩形">
                <use fill="black" fill-opacity="1" filter="url(#filter-3)" xlink:href="#path-2"></use>
                <use fill="#FAFAFA" fill-rule="evenodd" xlink:href="#path-2"></use>
            </g>
            <g id="路径" transform="translate(47.7789, 50.659)">
                <path d="M43.1051409,29.9015467 C46.0876648,24.5936953 53.7427807,24.6051625 56.709515,29.9216142 C57.9078069,32.0694091 57.8808209,34.6893634 56.6380308,36.8116439 L39.7456747,65.6586624 C39.0248048,66.8893729 37.7039276,67.646204 36.2759679,67.646204 L31.7018459,67.646204 C27.3131807,67.646204 24.5468317,62.9289102 26.694513,59.1069132 L43.1051409,29.9015467 Z" fill="#4574FF"></path>
                <path d="M60.3089841,47.1833834 C61.4326339,45.3925031 64.0448184,45.3904964 65.1716262,47.1793699 L72.5514279,58.8956312 C74.9566243,62.7136147 72.2083616,67.6820388 67.6910824,67.6820388 L60.8676511,67.6820388 C59.4833282,67.6820388 58.1966142,66.9705029 57.4619642,65.7994215 L54.3313045,60.8097832 C53.5444051,59.555565 53.5446922,57.9624929 54.3315916,56.7082747 L60.3089841,47.1833834 Z" fill="#0D1942"></path>
                <path d="M31.0897811,4.1526909 C33.2334433,0.270577413 38.1230714,-1.14139993 42.0104866,0.999228015 C45.8981888,3.13985596 47.3117943,8.02239121 45.1681322,11.904476 L15.5317951,65.5746656 C14.8247914,66.8552582 13.4764402,67.6502175 12.0122217,67.6502175 L5.74989758,67.6502175 C1.38000773,67.6502175 -1.38814995,62.9693319 0.721923262,59.1481949 L31.0897811,4.1526909 Z" fill="#0D1942" fill-rule="nonzero"></path>
            </g>
        </g>
    </g>
</svg>