<svg width="22" height="22" viewBox="0 0 22 22" fill="none" xmlns="http://www.w3.org/2000/svg">
<path fill-rule="evenodd" clip-rule="evenodd" d="M6.31641 4.98438L7.09054 4.99691C9.27285 5.03224 10.8818 5.12673 12.0185 5.2678C12.8161 5.36678 13.6183 5.64873 14.2607 6.09273C15.0478 6.63679 15.5635 7.39626 15.7014 8.33845L15.7032 8.35067L15.7045 8.36294C15.8105 9.40745 15.5333 10.0693 14.9017 10.7601C14.8878 10.7753 14.8513 10.8143 14.8087 10.86L14.7977 10.8717L14.8016 10.876C15.398 11.5359 15.6977 12.3346 15.7071 13.3623C15.7071 14.8894 14.2972 16.4032 12.532 16.6272C12.1133 16.6803 11.5829 16.7211 10.7618 16.7678C10.8931 16.7604 9.95019 16.81 8.94873 16.865L8.84673 16.8706C8.18289 16.9071 7.5085 16.9452 7.11688 16.9699L6.39306 17.0156L6.53031 16.3054L6.66393 15.614C7.00568 13.8919 7.77921 12.9201 9.2232 12.2098C9.67865 11.9858 10.1668 11.8686 10.9946 11.7395C11.0358 11.733 11.0788 11.7264 11.1298 11.7186C11.1617 11.7137 11.1969 11.7083 11.2633 11.6982C12.3082 11.5388 12.7271 11.4174 12.9199 11.2011C13.0566 11.2474 13.2084 11.3479 13.3752 11.5027C13.5421 11.6575 13.6699 11.8049 13.7589 11.9448C13.4993 12.2361 13.1391 12.4258 12.6671 12.5625C12.6363 12.5715 12.6057 12.58 12.5751 12.5883L12.5291 12.6006C12.2525 12.6727 11.9606 12.7243 11.4331 12.8048C11.3665 12.8149 11.3317 12.8202 11.3001 12.8251C11.2501 12.8327 11.2081 12.8392 11.168 12.8454C10.4488 12.9576 10.0418 13.0554 9.71977 13.2138C8.58297 13.7729 8.03761 14.4581 7.76563 15.8286L7.76942 15.8097L7.78943 15.8086C8.91219 15.7443 10.5233 15.6587 10.6957 15.6501L10.7065 15.6496C10.7091 15.6495 10.7105 15.6494 10.7107 15.6494L10.7103 15.6494L10.7495 15.6473C11.4995 15.6042 11.9907 15.5663 12.3649 15.5199L12.3903 15.5167C13.6144 15.3614 14.5848 14.354 14.5848 13.4122C14.5848 12.4756 14.3231 11.9469 13.7125 11.3788C13.6957 11.3642 13.6637 11.3364 13.6167 11.2956C13.2685 10.9749 12.4913 10.6814 11.6592 10.6006C11.1045 10.5467 11.0901 10.5454 11.6161 10.5966C9.74486 10.4232 9.02736 10.1696 8.29366 9.4326C7.68695 8.82315 7.17391 7.8347 6.90905 6.89394L6.91124 6.90146L6.54525 5.72198L6.31641 4.98438ZM7.84741 6.13178L7.98559 6.57721L7.98977 6.59135C8.20695 7.36275 8.63408 8.18567 9.09027 8.64391C9.60426 9.16022 10.0862 9.33057 11.7175 9.48172C12.5349 9.55382 13.3346 9.78876 13.9152 10.1363L13.9378 10.1499L13.9454 10.1419C14 10.0834 14.0503 10.0296 14.0683 10.01L14.0722 10.0059C14.5055 9.53194 14.658 9.16799 14.5877 8.4757L14.5889 8.48867L14.5853 8.46531C14.3992 7.32972 13.3001 6.56763 11.9221 6.38409L11.8798 6.37866C10.928 6.26053 9.6123 6.17528 7.86924 6.13235L7.84741 6.13178Z" fill="#111111"/>
</svg>
