<?xml version="1.0" encoding="UTF-8"?>
<svg width="22px" height="22px" viewBox="0 0 22 22" version="1.1" xmlns="http://www.w3.org/2000/svg" xmlns:xlink="http://www.w3.org/1999/xlink">
    <title>tray-icon-template</title>
    <defs>
        <path d="M0,0 L22,0 L22,22 L0,22 L0,0 Z" id="path-1"></path>
    </defs>
    <g id="tray-icon-template" stroke="none" fill="none" xlink:href="#path-1" fill-rule="evenodd" stroke-width="1">
        <g id="编组" transform="translate(0.1484, -0.8516)" fill="#000000">
            <g transform="translate(4, 5)" id="路径">
                <path d="M8.21696342,5.74332739 C8.78551022,4.723824 10.2447749,4.72602654 10.8103117,5.74718184 C11.0387374,6.15971867 11.0335932,6.66294533 10.796685,7.07058149 L7.57656159,12.6113608 C7.439145,12.847749 7.18735139,12.993117 6.91514504,12.993117 L6.04319816,12.993117 C5.20660418,12.993117 4.67926595,12.0870448 5.08866999,11.3529362 L8.21696342,5.74332739 Z"></path>
                <path d="M11.4964644,9.06272911 C11.7106613,8.71874652 12.2086118,8.71836108 12.4234107,9.06195822 L13.8301933,11.3123543 C14.2886864,12.045692 13.7647959,13 12.9036847,13 L11.6029609,13 C11.3390728,13 11.0937916,12.863332 10.9537482,12.638397 L10.3569628,11.6800143 C10.2069593,11.4391108 10.207014,11.1331222 10.3570176,10.8922187 L11.4964644,9.06272911 Z"></path>
                <path d="M5.92652266,0.797626411 C6.33516054,0.0519710463 7.26725112,-0.219233925 8.00829378,0.191926313 C8.74939116,0.603086552 9.01886122,1.54089752 8.61022334,2.28654738 L2.96076499,12.5952271 C2.82599165,12.8411964 2.56896078,12.9938879 2.28984256,12.9938879 L1.09608035,12.9938879 C0.263065444,12.9938879 -0.264617564,12.0948087 0.137617391,11.3608654 L5.92652266,0.797626411 Z" fill-rule="nonzero"></path>
            </g>
        </g>
    </g>
</svg>