<?xml version="1.0" encoding="UTF-8"?>
<svg width="204px" height="188px" viewBox="0 0 204 188" version="1.1" xmlns="http://www.w3.org/2000/svg" xmlns:xlink="http://www.w3.org/1999/xlink">
    <title>icon-plain</title>
    <defs>
        <path d="M0,0 L204,0 L204,188 L0,188 L0,0 Z" id="path-1"></path>
    </defs>
    <g id="icon-plain" stroke="none" fill="none" xlink:href="#path-1" fill-rule="evenodd">
        <use fill="#FFFFFF" xlink:href="#path-1"></use>
        <g id="编组" stroke-width="1">
            <g id="路径">
                <path d="M119.732896,83.0573499 C128.017435,68.3137624 149.281005,68.3456146 157.521685,83.1130913 C160.850174,89.0790085 160.775215,96.3564401 157.323124,102.251486 L110.401326,182.379679 C108.39897,185.798217 104.729977,187.900462 100.763542,187.900462 L88.0580304,187.900462 C75.8676609,187.900462 68.1835895,174.797263 74.1491913,164.180924 L119.732896,83.0573499 Z" fill="#4574FF"></path>
                <path d="M167.519909,131.061006 C170.641065,126.086488 177.896914,126.080914 181.026842,131.049857 L201.525673,163.594047 C208.206573,174.199238 200.57274,188 188.02512,188 L169.071715,188 C165.22649,188 161.652392,186.023571 159.611759,182.770665 L150.915744,168.910976 C148.729978,165.427142 148.730776,161.002075 150.916542,157.51824 L167.519909,131.061006 Z" fill="#0D1942"></path>
                <path d="M86.3579017,11.534905 C92.3123393,0.751581285 105.894231,-3.17045984 116.692281,2.77554976 C127.491128,8.72155937 131.417692,22.2837487 125.463254,33.0669928 L43.1425755,182.146362 C41.1787355,185.703456 37.4334285,187.91161 33.3662772,187.91161 L15.9714566,187.91161 C3.83323933,187.91161 -3.85585593,174.909542 2.00528199,164.295592 L86.3579017,11.534905 Z" fill="#0D1942" fill-rule="nonzero"></path>
            </g>
        </g>
    </g>
</svg>